<svg width="124" height="88" viewBox="0 0 124 88" fill="none" xmlns="http://www.w3.org/2000/svg">
<path d="M61.9937 50.2857C72.3532 50.2857 81.7481 54.516 88.5562 61.3423L79.7 70.2303C75.1654 65.6794 68.9021 62.8572 61.9937 62.8572C55.0854 62.8572 48.8221 65.6794 44.2875 70.2303L35.4313 61.3423C38.9147 57.834 43.0546 55.0512 47.613 53.1537C52.1715 51.2562 57.0587 50.2816 61.9937 50.2857ZM17.7062 43.5537C29.5375 31.68 45.2646 25.1429 61.9937 25.1429C78.7229 25.1429 94.4499 31.68 106.281 43.5537L97.425 52.4417C87.9612 42.944 75.3783 37.7143 61.9937 37.7143C48.6092 37.7143 36.0263 42.944 26.5625 52.4417L17.7062 43.5537ZM96.1285 6.92063C106.544 11.3437 116.008 17.747 124 25.7778L115.144 34.6658C100.945 20.4223 82.0737 12.5715 62 12.5715C41.9263 12.5715 23.0488 20.416 8.85625 34.6658L0 25.7778C8.13425 17.5941 17.7995 11.104 28.4404 6.68028C39.0814 2.25654 50.4884 -0.0136698 62.0063 6.19233e-05C73.8438 6.19233e-05 85.3244 2.32578 96.141 6.92063H96.1285ZM55.7305 81.7143C55.7305 80.0472 56.3904 78.4484 57.5649 77.2696C58.7395 76.0908 60.3326 75.4286 61.9937 75.4286C63.6549 75.4286 65.2479 76.0908 66.4225 77.2696C67.5971 78.4484 68.257 80.0472 68.257 81.7143C68.257 83.3814 67.5971 84.9802 66.4225 86.159C65.2479 87.3378 63.6549 88 61.9937 88C60.3326 88 58.7395 87.3378 57.5649 86.159C56.3904 84.9802 55.7305 83.3814 55.7305 81.7143Z" fill="#004CB0"/>
</svg>
