<svg width="90" height="97" viewBox="0 0 90 97" fill="none" xmlns="http://www.w3.org/2000/svg">
<rect x="4" y="4" width="82" height="69.2309" rx="11" stroke="#004CB0" stroke-width="8"/>
<line x1="1.42871" y1="60.4917" x2="88.5716" y2="60.4917" stroke="#004CB0" stroke-width="8"/>
<line x1="4" y1="-4" x2="31.5685" y2="-4" transform="matrix(0.271107 -0.962549 0.943871 0.330313 43.2144 51.7527)" stroke="#004CB0" stroke-width="8" stroke-linecap="round"/>
<line x1="38.9013" y1="73.8832" x2="35.3298" y2="89.6589" stroke="#004CB0" stroke-width="8"/>
<line x1="54.2058" y1="78.4636" x2="56.6721" y2="88.3832" stroke="#004CB0" stroke-width="8" stroke-linecap="square"/>
<line x1="28.2866" y1="39.0797" x2="21.5801" y2="33.6271" stroke="#004CB0" stroke-width="8" stroke-linecap="round"/>
<line x1="4" y1="-4" x2="13.8215" y2="-4" transform="matrix(-0.721439 0.692478 0.611346 0.791363 32.8569 26)" stroke="#004CB0" stroke-width="8" stroke-linecap="round"/>
<line x1="4" y1="-4" x2="12.6434" y2="-4" transform="matrix(0.775907 -0.630847 -0.630847 -0.775907 55 38.4995)" stroke="#004CB0" stroke-width="8" stroke-linecap="round"/>
<line x1="4" y1="-4" x2="13.8215" y2="-4" transform="matrix(0.721439 0.692478 -0.611346 0.791363 56.0566 26)" stroke="#004CB0" stroke-width="8" stroke-linecap="round"/>
<line x1="20.9979" y1="92.0281" x2="69.9979" y2="92.0021" stroke="#004CB0" stroke-width="8" stroke-linecap="round"/>
</svg>
