<svg width="100" height="116" viewBox="0 0 100 116" fill="none" xmlns="http://www.w3.org/2000/svg">
<mask id="path-1-inside-1_352_407" fill="white">
<path d="M76.3013 75.9257C83.3035 70.9716 88.4387 64.1721 90.9967 56.4675C93.5547 48.7629 93.4092 40.5338 90.5802 32.9184C87.7513 25.3029 82.3787 18.6774 75.2054 13.958C68.0322 9.23854 59.4127 6.65845 50.539 6.5745C41.6653 6.49054 32.9759 8.90687 25.6723 13.4893C18.3688 18.0718 12.812 24.5939 9.77053 32.1538C6.72903 39.7137 6.35305 47.9378 8.69459 55.6888C11.0361 63.4398 15.9795 70.3347 22.8411 75.4199L28.8733 68.7442C23.536 64.7886 19.6907 59.4253 17.8694 53.3962C16.048 47.367 16.3404 40.9699 18.7063 35.0893C21.0721 29.2088 25.3945 24.1355 31.0756 20.571C36.7567 17.0065 43.5159 15.127 50.4183 15.1923C57.3208 15.2576 64.0255 17.2645 69.6053 20.9356C75.185 24.6066 79.3641 29.7603 81.5646 35.6841C83.7652 41.6078 83.8784 48.0088 81.8886 54.0019C79.8988 59.995 75.9044 65.284 70.4577 69.1376L76.3013 75.9257Z"/>
</mask>
<path d="M76.3013 75.9257C83.3035 70.9716 88.4387 64.1721 90.9967 56.4675C93.5547 48.7629 93.4092 40.5338 90.5802 32.9184C87.7513 25.3029 82.3787 18.6774 75.2054 13.958C68.0322 9.23854 59.4127 6.65845 50.539 6.5745C41.6653 6.49054 32.9759 8.90687 25.6723 13.4893C18.3688 18.0718 12.812 24.5939 9.77053 32.1538C6.72903 39.7137 6.35305 47.9378 8.69459 55.6888C11.0361 63.4398 15.9795 70.3347 22.8411 75.4199L28.8733 68.7442C23.536 64.7886 19.6907 59.4253 17.8694 53.3962C16.048 47.367 16.3404 40.9699 18.7063 35.0893C21.0721 29.2088 25.3945 24.1355 31.0756 20.571C36.7567 17.0065 43.5159 15.127 50.4183 15.1923C57.3208 15.2576 64.0255 17.2645 69.6053 20.9356C75.185 24.6066 79.3641 29.7603 81.5646 35.6841C83.7652 41.6078 83.8784 48.0088 81.8886 54.0019C79.8988 59.995 75.9044 65.284 70.4577 69.1376L76.3013 75.9257Z" stroke="#004CB0" stroke-width="24" mask="url(#path-1-inside-1_352_407)"/>
<mask id="path-2-inside-2_352_407" fill="white">
<path d="M35.8027 79.5C35.8027 76.9803 34.9966 74.5108 33.4755 72.3711C31.9545 70.2313 29.7793 68.5066 27.196 67.3922L22.895 75.0219C23.8504 75.434 24.6549 76.0719 25.2175 76.8633C25.7801 77.6547 26.0782 78.5681 26.0782 79.5H35.8027Z"/>
</mask>
<path d="M35.8027 79.5C35.8027 76.9803 34.9966 74.5108 33.4755 72.3711C31.9545 70.2313 29.7793 68.5066 27.196 67.3922L22.895 75.0219C23.8504 75.434 24.6549 76.0719 25.2175 76.8633C25.7801 77.6547 26.0782 78.5681 26.0782 79.5H35.8027Z" stroke="#004CB0" stroke-width="16" mask="url(#path-2-inside-2_352_407)"/>
<mask id="path-3-inside-3_352_407" fill="white">
<path d="M64.1973 79.5C64.1973 76.9803 65.0034 74.5108 66.5245 72.3711C68.0455 70.2313 70.2207 68.5066 72.804 67.3922L77.105 75.0219C76.1496 75.434 75.3451 76.0719 74.7825 76.8633C74.2199 77.6547 73.9218 78.5681 73.9218 79.5H64.1973Z"/>
</mask>
<path d="M64.1973 79.5C64.1973 76.9803 65.0034 74.5108 66.5245 72.3711C68.0455 70.2313 70.2207 68.5066 72.804 67.3922L77.105 75.0219C76.1496 75.434 75.3451 76.0719 74.7825 76.8633C74.2199 77.6547 73.9218 78.5681 73.9218 79.5H64.1973Z" stroke="#004CB0" stroke-width="16" mask="url(#path-3-inside-3_352_407)"/>
<path d="M70.9297 82V88C70.9297 94.6273 65.5569 99.9997 58.9297 100H42.0156C35.3882 100 30.0156 94.6274 30.0156 88V82H70.9297Z" stroke="#004CB0" stroke-width="6"/>
<line x1="28.395" y1="90.5" x2="70.4343" y2="90.5" stroke="#004CB0" stroke-width="5"/>
<path d="M65.312 101C64.3663 106.346 59.7004 110.408 54.0825 110.408H46.7417C41.1238 110.408 36.458 106.347 35.5122 101H65.312Z" stroke="#004CB0" stroke-width="4"/>
<line y1="-2.5" x2="37.7342" y2="-2.5" transform="matrix(0.196305 0.980543 -0.991483 0.130233 34.5679 46)" stroke="#004CB0" stroke-width="5"/>
<line y1="-2.5" x2="37.1206" y2="-2.5" transform="matrix(-0.166291 0.986077 -0.993935 -0.109973 58.0249 46)" stroke="#004CB0" stroke-width="5"/>
<ellipse cx="35.185" cy="45.5" rx="5.55556" ry="2.5" fill="#004CB0"/>
<ellipse cx="63.5805" cy="46.5" rx="5.55556" ry="2.5" fill="#004CB0"/>
<line x1="39.5063" y1="59" x2="60.526" y2="59" stroke="#004CB0" stroke-width="4"/>
</svg>
