<svg width="229" height="60" viewBox="0 0 229 60" fill="none" xmlns="http://www.w3.org/2000/svg">
<path d="M66.1426 5.29895H71.7335V45.1568L71.2526 51.4691H66.1426V5.29895ZM93.7064 34.9368V35.5681C93.7064 37.9327 93.4259 40.127 92.8648 42.1509C92.3037 44.1548 91.4821 45.8982 90.4 47.3811C89.3178 48.864 87.9953 50.0163 86.4322 50.8379C84.8691 51.6595 83.0756 52.0703 81.0517 52.0703C78.9877 52.0703 77.1741 51.7196 75.6111 51.0182C74.0681 50.2968 72.7655 49.2648 71.7034 47.9222C70.6414 46.5796 69.7897 44.9564 69.1484 43.0527C68.5272 41.149 68.0964 39.0048 67.8559 36.6201V33.8547C68.0964 31.45 68.5272 29.2958 69.1484 27.3921C69.7897 25.4884 70.6414 23.8652 71.7034 22.5226C72.7655 21.1599 74.0681 20.1279 75.6111 19.4265C77.1541 18.7051 78.9476 18.3444 80.9916 18.3444C83.0356 18.3444 84.8491 18.7452 86.4322 19.5468C88.0153 20.3283 89.3379 21.4505 90.4 22.9133C91.4821 24.3762 92.3037 26.1296 92.8648 28.1736C93.4259 30.1976 93.7064 32.452 93.7064 34.9368ZM88.1155 35.5681V34.9368C88.1155 33.3137 87.9652 31.7907 87.6646 30.3679C87.364 28.9251 86.8831 27.6626 86.2218 26.5805C85.5605 25.4784 84.6888 24.6167 83.6067 23.9955C82.5246 23.3542 81.192 23.0336 79.6089 23.0336C78.2061 23.0336 76.9837 23.2741 75.9417 23.755C74.9197 24.2359 74.048 24.8872 73.3266 25.7088C72.6052 26.5104 72.014 27.4322 71.5531 28.4742C71.1123 29.4962 70.7816 30.5583 70.5612 31.6604V38.9046C70.8818 40.3073 71.4029 41.66 72.1243 42.9625C72.8657 44.245 73.8476 45.2971 75.07 46.1187C76.3124 46.9403 77.8454 47.3511 79.669 47.3511C81.1719 47.3511 82.4544 47.0505 83.5165 46.4493C84.5986 45.8281 85.4703 44.9764 86.1316 43.8943C86.8129 42.8122 87.3139 41.5598 87.6345 40.137C87.9552 38.7142 88.1155 37.1912 88.1155 35.5681Z" fill="#004CB0"/>
<path d="M51.8649 45.9081V29.1654C51.8649 27.8829 51.6044 26.7707 51.0834 25.8289C50.5824 24.867 49.8209 24.1255 48.7989 23.6045C47.7769 23.0835 46.5145 22.823 45.0115 22.823C43.6088 22.823 42.3764 23.0635 41.3143 23.5444C40.2723 24.0253 39.4507 24.6566 38.8495 25.4381C38.2684 26.2196 37.9778 27.0613 37.9778 27.963H32.4169C32.4169 26.8008 32.7175 25.6485 33.3187 24.5063C33.9199 23.364 34.7816 22.332 35.9037 21.4102C37.046 20.4684 38.4086 19.7269 39.9917 19.1859C41.5949 18.6248 43.3783 18.3442 45.3422 18.3442C47.7068 18.3442 49.7909 18.745 51.5944 19.5466C53.4179 20.3482 54.8407 21.5605 55.8627 23.1837C56.9048 24.7868 57.4258 26.8008 57.4258 29.2255V44.3751C57.4258 45.4572 57.516 46.6094 57.6963 47.8318C57.8967 49.0542 58.1873 50.1063 58.568 50.988V51.4689H52.7667C52.4861 50.8277 52.2657 49.976 52.1054 48.9139C51.9451 47.8318 51.8649 46.8299 51.8649 45.9081ZM52.8268 31.7504L52.8869 35.6581H47.2659C45.6828 35.6581 44.2701 35.7883 43.0277 36.0488C41.7852 36.2893 40.7432 36.66 39.9016 37.161C39.0599 37.662 38.4187 38.2932 37.9778 39.0547C37.5369 39.7961 37.3165 40.6678 37.3165 41.6698C37.3165 42.6918 37.547 43.6236 38.0079 44.4653C38.4688 45.3069 39.1601 45.9782 40.0819 46.4792C41.0237 46.9601 42.176 47.2006 43.5387 47.2006C45.242 47.2006 46.7449 46.8399 48.0475 46.1185C49.35 45.3971 50.382 44.5153 51.1435 43.4733C51.925 42.4313 52.3459 41.4193 52.406 40.4374L54.7806 43.1126C54.6403 43.9543 54.2596 44.8861 53.6384 45.9081C53.0172 46.9301 52.1855 47.912 51.1435 48.8538C50.1215 49.7756 48.8991 50.5471 47.4763 51.1683C46.0736 51.7695 44.4905 52.0701 42.7271 52.0701C40.5228 52.0701 38.589 51.6393 36.9257 50.7776C35.2825 49.9159 34 48.7636 33.0782 47.3208C32.1765 45.858 31.7256 44.2248 31.7256 42.4213C31.7256 40.6779 32.0663 39.1449 32.7476 37.8223C33.4289 36.4797 34.4108 35.3675 35.6933 34.4858C36.9758 33.584 38.5189 32.9027 40.3224 32.4418C42.1259 31.9809 44.1398 31.7504 46.3642 31.7504H52.8268Z" fill="#004CB0"/>
<path d="M26.8861 46.7499V51.4691H5.00334V46.7499H26.8861ZM6.14557 7.70361V51.4691H0.344238V7.70361H6.14557Z" fill="#004CB0"/>
<path d="M102.839 0H228.279V59.4188H102.839V0Z" fill="#004CB0"/>
<path d="M219.522 21.5105V54.034H213.932V21.5105H219.522ZM213.511 12.8836C213.511 11.9819 213.781 11.2204 214.322 10.5992C214.883 9.97796 215.705 9.66736 216.787 9.66736C217.849 9.66736 218.661 9.97796 219.222 10.5992C219.803 11.2204 220.094 11.9819 220.094 12.8836C220.094 13.7453 219.803 14.4868 219.222 15.108C218.661 15.7092 217.849 16.0097 216.787 16.0097C215.705 16.0097 214.883 15.7092 214.322 15.108C213.781 14.4868 213.511 13.7453 213.511 12.8836Z" fill="white"/>
<path d="M199.232 47.7215V7.86365H204.823V54.0338H199.713L199.232 47.7215ZM177.349 38.1328V37.5015C177.349 35.0167 177.65 32.7623 178.251 30.7383C178.872 28.6943 179.744 26.9409 180.866 25.478C182.008 24.0152 183.361 22.893 184.924 22.1115C186.507 21.3099 188.27 20.9091 190.214 20.9091C192.258 20.9091 194.042 21.2698 195.565 21.9912C197.108 22.6926 198.41 23.7246 199.472 25.0873C200.554 26.4299 201.406 28.0531 202.027 29.9568C202.649 31.8605 203.079 34.0147 203.32 36.4194V39.1848C203.099 41.5695 202.669 43.7137 202.027 45.6174C201.406 47.5211 200.554 49.1443 199.472 50.4869C198.41 51.8295 197.108 52.8615 195.565 53.5829C194.022 54.2843 192.218 54.635 190.154 54.635C188.25 54.635 186.507 54.2242 184.924 53.4026C183.361 52.581 182.008 51.4287 180.866 49.9458C179.744 48.4629 178.872 46.7195 178.251 44.7156C177.65 42.6917 177.349 40.4974 177.349 38.1328ZM182.94 37.5015V38.1328C182.94 39.7559 183.1 41.2789 183.421 42.7017C183.762 44.1245 184.283 45.3769 184.984 46.459C185.685 47.5411 186.577 48.3928 187.659 49.014C188.741 49.6152 190.034 49.9158 191.537 49.9158C193.38 49.9158 194.893 49.525 196.076 48.7435C197.278 47.962 198.24 46.9299 198.961 45.6474C199.683 44.3649 200.244 42.9722 200.645 41.4693V34.2251C200.404 33.123 200.053 32.0609 199.593 31.0389C199.152 29.9969 198.571 29.0751 197.849 28.2735C197.148 27.4519 196.276 26.8006 195.234 26.3197C194.212 25.8388 193 25.5983 191.597 25.5983C190.074 25.5983 188.761 25.9189 187.659 26.5602C186.577 27.1814 185.685 28.0431 184.984 29.1452C184.283 30.2273 183.762 31.4898 183.421 32.9326C183.1 34.3554 182.94 35.8784 182.94 37.5015Z" fill="white"/>
<path d="M159.585 54.6353C157.32 54.6353 155.266 54.2545 153.423 53.4931C151.599 52.7115 150.026 51.6194 148.703 50.2167C147.401 48.8139 146.399 47.1507 145.698 45.2269C144.996 43.3032 144.646 41.199 144.646 38.9146V37.6521C144.646 35.007 145.036 32.6524 145.818 30.5883C146.599 28.5043 147.661 26.7408 149.004 25.298C150.347 23.8552 151.87 22.763 153.573 22.0216C155.276 21.2801 157.04 20.9094 158.863 20.9094C161.188 20.9094 163.192 21.3102 164.875 22.1118C166.578 22.9133 167.971 24.0355 169.053 25.4783C170.135 26.9011 170.937 28.5844 171.458 30.5282C171.979 32.452 172.239 34.5561 172.239 36.8405V39.3354H147.952V34.7965H166.679V34.3757C166.598 32.9329 166.298 31.5302 165.777 30.1675C165.276 28.8048 164.474 27.6827 163.372 26.8009C162.27 25.9192 160.767 25.4783 158.863 25.4783C157.601 25.4783 156.439 25.7489 155.376 26.2899C154.314 26.8109 153.403 27.5925 152.641 28.6345C151.88 29.6765 151.288 30.949 150.868 32.452C150.447 33.9549 150.236 35.6883 150.236 37.6521V38.9146C150.236 40.4576 150.447 41.9104 150.868 43.2731C151.309 44.6157 151.94 45.798 152.761 46.82C153.603 47.842 154.615 48.6436 155.797 49.2247C157 49.8059 158.362 50.0964 159.885 50.0964C161.849 50.0964 163.512 49.6956 164.875 48.8941C166.238 48.0925 167.43 47.0204 168.452 45.6778L171.819 48.353C171.117 49.4151 170.225 50.4271 169.143 51.3889C168.061 52.3508 166.729 53.1324 165.146 53.7335C163.582 54.3347 161.729 54.6353 159.585 54.6353Z" fill="white"/>
<path d="M129.376 10.2686V54.034H123.664V10.2686H129.376ZM143.443 10.2686V15.0178H109.627V10.2686H143.443Z" fill="white"/>
</svg>
