<svg width="36" height="42" viewBox="0 0 36 42" fill="none" xmlns="http://www.w3.org/2000/svg">
<path d="M35.1816 11.5239C35.1704 11.4689 35.1704 11.4122 35.1816 11.3572C35.173 11.309 35.173 11.2596 35.1816 11.2114V11.0239L35.0566 10.7114C35.0054 10.6265 34.9422 10.5493 34.8691 10.4822L34.6816 10.3156H34.5775L26.3691 5.12807L18.6191 0.336402C18.4385 0.196272 18.2337 0.0903625 18.015 0.0239019H17.8483C17.6621 -0.00796729 17.4719 -0.00796729 17.2858 0.0239019H17.0775C16.8351 0.0763959 16.603 0.167863 16.39 0.294735L0.827458 9.98223L0.639958 10.1281L0.452458 10.2947L0.244125 10.4406L0.139958 10.5656L0.0149577 10.8781V11.1906C-0.00498589 11.3287 -0.00498589 11.4691 0.0149577 11.6072V29.7947C0.0142492 30.1488 0.103783 30.4972 0.275106 30.807C0.446429 31.1169 0.693889 31.3779 0.994124 31.5656L16.6191 41.2322L16.9316 41.3572H17.0983C17.4508 41.469 17.8292 41.469 18.1816 41.3572H18.3483L18.6608 41.2322L34.1608 31.7114C34.461 31.5238 34.7085 31.2627 34.8798 30.9528C35.0511 30.643 35.1407 30.2946 35.14 29.9406V11.7531C35.14 11.7531 35.1816 11.6072 35.1816 11.5239ZM17.4941 4.54474L21.2025 6.8364L9.55662 14.0447L5.82746 11.7531L17.4941 4.54474ZM15.4108 35.7947L3.95246 28.7947V15.4822L15.4108 22.5656V35.7947ZM17.4941 18.8989L13.515 16.5031L25.1608 9.2739L29.1608 11.7531L17.4941 18.8989ZM31.0358 28.7322L19.5775 35.8572V22.5656L31.0358 15.4822V28.7322Z" fill="white"/>
</svg>
