<svg width="35" height="32" viewBox="0 0 35 32" fill="none" xmlns="http://www.w3.org/2000/svg">
<path d="M30.6557 16.656L30.6574 24.3111L17.5129 31.7049L4.36834 24.3111L4.36672 16.7826L7.65288 18.7034L7.65449 22.3887L15.8698 27.009L15.8681 21.3076L17.5242 20.2918L19.1543 21.2944L19.1559 27.009L27.3713 22.3871L27.3696 18.5752L30.6557 16.656ZM13.8174 0L17.4674 2.15575L17.5129 2.12972L17.5331 2.14096L20.9898 0.100586L34.8073 8.15434L31.3382 10.284L34.8079 12.3321L20.9045 20.4514L17.5151 18.3695L14.0192 20.5181L0.11599 12.3988L3.66239 10.3037L0 8.05383L13.8174 0ZM29.1376 10.3451L17.5048 3.94697L6.1058 10.3451L17.5048 16.7431L29.1376 10.3451Z" fill="white"/>
</svg>
