<svg width="155" height="48" viewBox="0 0 155 48" fill="none" xmlns="http://www.w3.org/2000/svg">
<path d="M20.5469 42.6609V45.7273H6.32812V42.6609H20.5469ZM7.07031 17.2898V45.7273H3.30078V17.2898H7.07031ZM36.7773 42.114V31.2351C36.7773 30.4018 36.6081 29.6791 36.2695 29.0671C35.944 28.4421 35.4492 27.9604 34.7852 27.6218C34.1211 27.2833 33.3008 27.114 32.3242 27.114C31.4128 27.114 30.612 27.2703 29.9219 27.5828C29.2448 27.8953 28.7109 28.3054 28.3203 28.8132C27.9427 29.321 27.7539 29.8679 27.7539 30.4539H24.1406C24.1406 29.6986 24.3359 28.95 24.7266 28.2078C25.1172 27.4656 25.6771 26.795 26.4062 26.196C27.1484 25.5841 28.0339 25.1023 29.0625 24.7507C30.1042 24.3861 31.263 24.2039 32.5391 24.2039C34.0755 24.2039 35.4297 24.4643 36.6016 24.9851C37.7865 25.5059 38.7109 26.2937 39.375 27.3484C40.0521 28.3901 40.3906 29.6986 40.3906 31.2742V41.1179C40.3906 41.821 40.4492 42.5697 40.5664 43.364C40.6966 44.1583 40.8854 44.8419 41.1328 45.4148V45.7273H37.3633C37.181 45.3106 37.0378 44.7572 36.9336 44.0671C36.8294 43.364 36.7773 42.713 36.7773 42.114ZM37.4023 32.9148L37.4414 35.4539H33.7891C32.7604 35.4539 31.8424 35.5385 31.0352 35.7078C30.2279 35.864 29.5508 36.1049 29.0039 36.4304C28.457 36.7559 28.0404 37.1661 27.7539 37.6609C27.4674 38.1427 27.3242 38.7091 27.3242 39.3601C27.3242 40.0242 27.474 40.6296 27.7734 41.1765C28.0729 41.7234 28.5221 42.1596 29.1211 42.4851C29.7331 42.7976 30.4818 42.9539 31.3672 42.9539C32.474 42.9539 33.4505 42.7195 34.2969 42.2507C35.1432 41.782 35.8138 41.2091 36.3086 40.532C36.8164 39.8549 37.0898 39.1973 37.1289 38.5593L38.6719 40.2976C38.5807 40.8445 38.3333 41.45 37.9297 42.114C37.526 42.7781 36.9857 43.4161 36.3086 44.0281C35.6445 44.627 34.8503 45.1283 33.9258 45.532C33.0143 45.9226 31.9857 46.1179 30.8398 46.1179C29.4076 46.1179 28.151 45.838 27.0703 45.2781C26.0026 44.7182 25.1693 43.9695 24.5703 43.032C23.9844 42.0815 23.6914 41.0203 23.6914 39.8484C23.6914 38.7156 23.9128 37.7195 24.3555 36.8601C24.7982 35.9877 25.4362 35.2651 26.2695 34.6921C27.1029 34.1062 28.1055 33.6635 29.2773 33.364C30.4492 33.0645 31.7578 32.9148 33.2031 32.9148H37.4023ZM46.0547 15.7273H49.6875V41.6257L49.375 45.7273H46.0547V15.7273ZM63.9648 34.9851V35.3953C63.9648 36.9317 63.7826 38.3575 63.418 39.6726C63.0534 40.9747 62.5195 42.1075 61.8164 43.071C61.1133 44.0346 60.2539 44.7833 59.2383 45.3171C58.2227 45.851 57.0573 46.1179 55.7422 46.1179C54.401 46.1179 53.2227 45.8901 52.207 45.4343C51.2044 44.9656 50.3581 44.295 49.668 43.4226C48.9779 42.5502 48.4245 41.4955 48.0078 40.2585C47.6042 39.0216 47.3242 37.6283 47.168 36.0789V34.282C47.3242 32.7195 47.6042 31.3197 48.0078 30.0828C48.4245 28.8458 48.9779 27.7911 49.668 26.9187C50.3581 26.0333 51.2044 25.3627 52.207 24.907C53.2096 24.4382 54.375 24.2039 55.7031 24.2039C57.0312 24.2039 58.2096 24.4643 59.2383 24.9851C60.2669 25.4929 61.1263 26.2221 61.8164 27.1726C62.5195 28.1231 63.0534 29.2625 63.418 30.5906C63.7826 31.9057 63.9648 33.3705 63.9648 34.9851ZM60.332 35.3953V34.9851C60.332 33.9304 60.2344 32.9408 60.0391 32.0164C59.8438 31.0789 59.5312 30.2585 59.1016 29.5554C58.6719 28.8393 58.1055 28.2794 57.4023 27.8757C56.6992 27.4591 55.8333 27.2507 54.8047 27.2507C53.8932 27.2507 53.099 27.407 52.4219 27.7195C51.7578 28.032 51.1914 28.4552 50.7227 28.989C50.2539 29.5098 49.8698 30.1088 49.5703 30.7859C49.2839 31.45 49.069 32.1401 48.9258 32.8562V37.5632C49.1341 38.4747 49.4727 39.3536 49.9414 40.2C50.4232 41.0333 51.0612 41.7169 51.8555 42.2507C52.6628 42.7846 53.6589 43.0515 54.8438 43.0515C55.8203 43.0515 56.6536 42.8562 57.3438 42.4656C58.0469 42.0619 58.6133 41.5085 59.043 40.8054C59.4857 40.1023 59.8112 39.2885 60.0195 38.364C60.2279 37.4395 60.332 36.45 60.332 35.3953Z" fill="white"/>
<rect x="68.5264" y="11.5837" width="79.9474" height="33.6461" fill="white"/>
<path d="M84.217 17.5881V43.1819H80.8772V17.5881H84.217ZM92.4436 17.5881V20.3655H72.6682V17.5881H92.4436ZM101.883 43.5334C100.559 43.5334 99.3577 43.3108 98.2795 42.8655C97.2131 42.4084 96.2932 41.7698 95.5198 40.9495C94.7581 40.1292 94.1721 39.1565 93.762 38.0315C93.3518 36.9065 93.1467 35.676 93.1467 34.3401V33.6018C93.1467 32.0549 93.3752 30.678 93.8323 29.4709C94.2893 28.2522 94.9104 27.2209 95.6956 26.3772C96.4807 25.5334 97.3713 24.8948 98.3674 24.4612C99.3635 24.0276 100.395 23.8108 101.461 23.8108C102.821 23.8108 103.992 24.0452 104.977 24.5139C105.973 24.9827 106.787 25.6389 107.42 26.4827C108.053 27.3147 108.522 28.2991 108.826 29.4358C109.131 30.5608 109.283 31.7913 109.283 33.1272V34.5862H95.0803V31.9319H106.031V31.6858C105.985 30.842 105.809 30.0217 105.504 29.2249C105.211 28.428 104.742 27.7717 104.098 27.2561C103.453 26.7405 102.574 26.4827 101.461 26.4827C100.723 26.4827 100.043 26.6409 99.4221 26.9573C98.801 27.262 98.2678 27.719 97.8225 28.3284C97.3772 28.9377 97.0315 29.6819 96.7854 30.5608C96.5393 31.4397 96.4163 32.4534 96.4163 33.6018V34.3401C96.4163 35.2424 96.5393 36.092 96.7854 36.8889C97.0432 37.6741 97.4124 38.3655 97.8928 38.9631C98.385 39.5608 98.9768 40.0295 99.6682 40.3694C100.371 40.7092 101.168 40.8792 102.059 40.8792C103.207 40.8792 104.18 40.6448 104.977 40.176C105.774 39.7073 106.471 39.0803 107.069 38.2952L109.037 39.8596C108.627 40.4807 108.106 41.0725 107.473 41.635C106.84 42.1975 106.061 42.6545 105.135 43.0061C104.221 43.3577 103.137 43.5334 101.883 43.5334ZM125.069 39.4905V16.1819H128.338V43.1819H125.35L125.069 39.4905ZM112.272 33.8831V33.5139C112.272 32.0608 112.448 30.7424 112.799 29.5588C113.162 28.3635 113.672 27.3381 114.328 26.4827C114.996 25.6272 115.787 24.9709 116.701 24.5139C117.627 24.0452 118.658 23.8108 119.795 23.8108C120.99 23.8108 122.033 24.0217 122.924 24.4436C123.826 24.8538 124.588 25.4573 125.209 26.2542C125.842 27.0393 126.34 27.9885 126.703 29.1018C127.067 30.2151 127.319 31.4749 127.459 32.8811V34.4983C127.33 35.8928 127.078 37.1467 126.703 38.26C126.34 39.3733 125.842 40.3225 125.209 41.1077C124.588 41.8928 123.826 42.4963 122.924 42.9182C122.022 43.3284 120.967 43.5334 119.76 43.5334C118.647 43.5334 117.627 43.2932 116.701 42.8127C115.787 42.3323 114.996 41.6584 114.328 40.7913C113.672 39.9241 113.162 38.9045 112.799 37.7327C112.448 36.5491 112.272 35.2659 112.272 33.8831ZM115.541 33.5139V33.8831C115.541 34.8323 115.635 35.7229 115.823 36.5549C116.022 37.387 116.326 38.1194 116.737 38.7522C117.147 39.385 117.668 39.8831 118.301 40.2463C118.934 40.5979 119.69 40.7737 120.569 40.7737C121.647 40.7737 122.531 40.5452 123.223 40.0881C123.926 39.6311 124.489 39.0276 124.91 38.2776C125.332 37.5276 125.66 36.7131 125.895 35.8342V31.5979C125.754 30.9534 125.549 30.3323 125.28 29.7346C125.022 29.1252 124.682 28.5862 124.26 28.1174C123.85 27.637 123.34 27.2561 122.731 26.9749C122.133 26.6936 121.424 26.553 120.604 26.553C119.713 26.553 118.946 26.7405 118.301 27.1155C117.668 27.4788 117.147 27.9827 116.737 28.6272C116.326 29.26 116.022 29.9983 115.823 30.842C115.635 31.6741 115.541 32.5647 115.541 33.5139ZM136.934 24.1624V43.1819H133.664V24.1624H136.934ZM133.418 19.1174C133.418 18.5901 133.576 18.1448 133.893 17.7815C134.221 17.4182 134.701 17.2366 135.334 17.2366C135.955 17.2366 136.43 17.4182 136.758 17.7815C137.098 18.1448 137.268 18.5901 137.268 19.1174C137.268 19.6213 137.098 20.0549 136.758 20.4182C136.43 20.7698 135.955 20.9456 135.334 20.9456C134.701 20.9456 134.221 20.7698 133.893 20.4182C133.576 20.0549 133.418 19.6213 133.418 19.1174Z" fill="#004CB0"/>
</svg>
