<svg width="90" height="90" viewBox="0 0 90 90" fill="none" xmlns="http://www.w3.org/2000/svg">
<rect x="4" y="4" width="82" height="82" rx="11" stroke="#004CB0" stroke-width="8"/>
<line x1="66.064" y1="19.7144" x2="17.7129" y2="19.7144" stroke="#004CB0" stroke-width="8"/>
<path d="M23 20C23 17.7909 21.2091 16 19 16C16.7909 16 15 17.7909 15 20H19H23ZM19 68H23L23 20H19H15L15 68H19Z" fill="#004CB0"/>
<line x1="43.3534" y1="85.0881" x2="43.0405" y2="54.0401" stroke="#004CB0" stroke-width="8" stroke-linecap="round"/>
<line x1="56.0358" y1="39.0361" x2="85.0787" y2="39.2974" stroke="#004CB0" stroke-width="8" stroke-linecap="round"/>
<line x1="66.8511" y1="88.0952" x2="66.8511" y2="67.619" stroke="#004CB0" stroke-width="8"/>
<path d="M74.9681 19.7143C74.9681 22.8702 72.2889 25.4286 68.984 25.4286C65.6791 25.4286 63 22.8702 63 19.7143C63 16.5584 65.6791 14 68.984 14C72.2889 14 74.9681 16.5584 74.9681 19.7143ZM66.5838 19.7143C66.5838 20.9801 67.6584 22.0063 68.984 22.0063C70.3096 22.0063 71.3843 20.9801 71.3843 19.7143C71.3843 18.4484 70.3096 17.4223 68.984 17.4223C67.6584 17.4223 66.5838 18.4484 66.5838 19.7143Z" fill="#004CB0"/>
<path d="M24.9681 70.7143C24.9681 73.8702 22.2889 76.4286 18.984 76.4286C15.6791 76.4286 13 73.8702 13 70.7143C13 67.5584 15.6791 65 18.984 65C22.2889 65 24.9681 67.5584 24.9681 70.7143ZM16.6111 70.7143C16.6111 71.9657 17.6735 72.9802 18.984 72.9802C20.2946 72.9802 21.357 71.9657 21.357 70.7143C21.357 69.4628 20.2946 68.4483 18.984 68.4483C17.6735 68.4483 16.6111 69.4628 16.6111 70.7143Z" fill="#004CB0"/>
<path d="M72.9681 63.7143C72.9681 66.8702 70.2889 69.4286 66.984 69.4286C63.6791 69.4286 61 66.8702 61 63.7143C61 60.5584 63.6791 58 66.984 58C70.2889 58 72.9681 60.5584 72.9681 63.7143ZM64.6976 63.7143C64.6976 64.9201 65.7213 65.8977 66.984 65.8977C68.2468 65.8977 69.2705 64.9201 69.2705 63.7143C69.2705 62.5084 68.2468 61.5309 66.984 61.5309C65.7213 61.5309 64.6976 62.5084 64.6976 63.7143Z" fill="#004CB0"/>
<rect x="35.5957" y="33.5239" width="18.8085" height="17.2381" rx="8.61905" stroke="#004CB0" stroke-width="8"/>
</svg>
