<svg width="50" height="50" viewBox="0 0 50 50" fill="none" xmlns="http://www.w3.org/2000/svg">
<path d="M42.6875 15.6667C42.6763 15.6117 42.6763 15.555 42.6875 15.5001C42.6789 15.4518 42.6789 15.4025 42.6875 15.3542V15.1667L42.5625 14.8542C42.5112 14.7693 42.4481 14.6921 42.375 14.6251L42.1875 14.4584H42.0833L33.875 9.27089L26.125 4.47922C25.9443 4.33909 25.7396 4.23318 25.5208 4.16672H25.3541C25.168 4.13485 24.9778 4.13485 24.7916 4.16672H24.5833C24.341 4.21922 24.1088 4.31068 23.8958 4.43756L8.33332 14.1251L8.14582 14.2709L7.95832 14.4376L7.74998 14.5834L7.64582 14.7084L7.52082 15.0209V15.3334C7.50087 15.4716 7.50087 15.6119 7.52082 15.7501V33.9376C7.52011 34.2916 7.60964 34.64 7.78097 34.9498C7.95229 35.2597 8.19975 35.5207 8.49998 35.7084L24.125 45.3751L24.4375 45.5001H24.6042C24.9566 45.6118 25.335 45.6118 25.6875 45.5001H25.8541L26.1667 45.3751L41.6667 35.8542C41.9669 35.6666 42.2143 35.4055 42.3857 35.0957C42.557 34.7858 42.6465 34.4374 42.6458 34.0834V15.8959C42.6458 15.8959 42.6875 15.7501 42.6875 15.6667ZM25 8.68756L28.7083 10.9792L17.0625 18.1876L13.3333 15.8959L25 8.68756ZM22.9166 39.9376L11.4583 32.9376V19.6251L22.9166 26.7084V39.9376ZM25 23.0417L21.0208 20.6459L32.6667 13.4167L36.6667 15.8959L25 23.0417ZM38.5416 32.8751L27.0833 40.0001V26.7084L38.5416 19.6251V32.8751Z" fill="white"/>
</svg>
