<svg width="40" height="40" viewBox="0 0 40 40" fill="none" xmlns="http://www.w3.org/2000/svg">
<path d="M6.66699 29.9999C6.66699 28.2318 7.36937 26.5361 8.61961 25.2859C9.86986 24.0356 11.5655 23.3333 13.3337 23.3333H26.667C28.4351 23.3333 30.1308 24.0356 31.381 25.2859C32.6313 26.5361 33.3337 28.2318 33.3337 29.9999C33.3337 30.884 32.9825 31.7318 32.3573 32.3569C31.7322 32.9821 30.8844 33.3333 30.0003 33.3333H10.0003C9.11627 33.3333 8.26842 32.9821 7.6433 32.3569C7.01818 31.7318 6.66699 30.884 6.66699 29.9999Z" stroke="#004CB0" stroke-width="2" stroke-linejoin="round"/>
<path d="M20 16.6666C22.7614 16.6666 25 14.428 25 11.6666C25 8.9052 22.7614 6.66663 20 6.66663C17.2386 6.66663 15 8.9052 15 11.6666C15 14.428 17.2386 16.6666 20 16.6666Z" stroke="#004CB0" stroke-width="2"/>
</svg>
