<svg width="24" height="24" viewBox="0 0 24 24" fill="none" xmlns="http://www.w3.org/2000/svg">
<rect x="1" y="1" width="21.6601" height="21.6601" rx="10.8301" stroke="#C70000" stroke-width="2"/>
<path d="M7.09766 8.79965H16.2424M10.5269 11.29V15.0254M12.8131 11.29V15.0254M7.66921 8.79965L8.24075 16.2706C8.24075 16.6008 8.36119 16.9176 8.57556 17.1511C8.78993 17.3846 9.08068 17.5158 9.38385 17.5158H13.9562C14.2594 17.5158 14.5502 17.3846 14.7645 17.1511C14.9789 16.9176 15.0993 16.6008 15.0993 16.2706L15.6709 8.79965M9.9554 8.79965V6.93191C9.9554 6.76679 10.0156 6.60843 10.1228 6.49168C10.23 6.37492 10.3754 6.30933 10.5269 6.30933H12.8131C12.9647 6.30933 13.1101 6.37492 13.2173 6.49168C13.3245 6.60843 13.3847 6.76679 13.3847 6.93191V8.79965" stroke="#C70000" stroke-width="1.5" stroke-linecap="round" stroke-linejoin="round"/>
</svg>
