<svg width="32" height="32" viewBox="0 0 32 32" fill="none" xmlns="http://www.w3.org/2000/svg">
<path d="M25.4015 27.2156L17.2368 19.0509C16.5888 19.5693 15.8436 19.9797 15.0012 20.2821C14.1588 20.5845 13.2625 20.7357 12.3121 20.7357C9.9577 20.7357 7.96534 19.9201 6.335 18.2889C4.70465 16.6577 3.88905 14.6653 3.88818 12.3118C3.88732 9.95832 4.70292 7.96596 6.335 6.33475C7.96707 4.70354 9.95943 3.88794 12.3121 3.88794C14.6647 3.88794 16.6575 4.70354 18.2904 6.33475C19.9234 7.96596 20.7385 9.95832 20.7359 12.3118C20.7359 13.2622 20.5848 14.1586 20.2824 15.001C19.98 15.8434 19.5696 16.5886 19.0512 17.2366L27.2159 25.4012L25.4015 27.2156ZM12.3121 18.1437C13.932 18.1437 15.3092 17.577 16.4437 16.4434C17.5781 15.3099 18.1448 13.9327 18.144 12.3118C18.1431 10.691 17.5763 9.31422 16.4437 8.18153C15.311 7.04884 13.9338 6.48163 12.3121 6.4799C10.6904 6.47818 9.3136 7.04538 8.18177 8.18153C7.04995 9.31767 6.48274 10.6944 6.48015 12.3118C6.47756 13.9292 7.04476 15.3064 8.18177 16.4434C9.31878 17.5804 10.6955 18.1472 12.3121 18.1437Z" fill="#004CB0"/>
</svg>
